<svg id="Layer_1" data-name="Layer 1" xmlns="http://www.w3.org/2000/svg" viewBox="0 0 278.93 99.39"><defs><style>.cls-1{fill:#fff;}.cls-2{fill:#00e2ae;}.cls-3{fill:none;stroke:#00e2ae;stroke-linecap:round;stroke-miterlimit:10;stroke-width:0.49px;}</style></defs><path class="cls-1" d="M180.35,50.19a3.23,3.23,0,0,1,1-.85,3.93,3.93,0,0,1,4.1.53,4,4,0,0,1,1.18,3,5.28,5.28,0,0,1-1.35,3.73,3.93,3.93,0,0,1-3,1.16,3.59,3.59,0,0,1-1.74-.39,3.2,3.2,0,0,1-1-.9l-.08,1h-2.65l1.68-13.44h2.65Zm.14,1.66a2.43,2.43,0,0,0-.68,1.7,1.89,1.89,0,0,0,.54,1.42,2,2,0,0,0,1.34.51,2.24,2.24,0,0,0,1.52-.61,2.5,2.5,0,0,0,.7-1.71,2,2,0,0,0-.57-1.39,1.82,1.82,0,0,0-1.31-.49A2.11,2.11,0,0,0,180.49,51.85Z"/><path class="cls-1" d="M190.73,56.44l-3.19-7.17h3l1.82,4.5,2.77-4.5h3.12l-7.95,12.45h-3Z"/><path class="cls-2" d="M144.94,69a19.62,19.62,0,1,1,19.62-19.61A19.64,19.64,0,0,1,144.94,69Zm0-37.23a17.62,17.62,0,1,0,17.62,17.62A17.64,17.64,0,0,0,144.94,31.8Z"/><path class="cls-1" d="M209.05,46.79a3.21,3.21,0,0,1,2.16.93l1.49-2.17A5.72,5.72,0,0,0,209,44.28a4.78,4.78,0,0,0-3.49,1.22,4,4,0,0,0-1.16,2.92,3,3,0,0,0,.85,2.18A5.82,5.82,0,0,0,207,51.75l.76.31a2.76,2.76,0,0,1,1,.58,1.15,1.15,0,0,1,.37.89,1.48,1.48,0,0,1-.54,1.2,2.69,2.69,0,0,1-1.43.4,3,3,0,0,1-1.51-.42,4.41,4.41,0,0,1-1.08-1l-1.67,2.13a6.88,6.88,0,0,0,1.72,1.37,6.05,6.05,0,0,0,6.27-.67,4.73,4.73,0,0,0,1.3-3.31,2.94,2.94,0,0,0-.66-2,4.43,4.43,0,0,0-1.7-1.24l-.76-.35a5.49,5.49,0,0,1-1.25-.68,1,1,0,0,1-.45-.87,1.24,1.24,0,0,1,.45-.93A2,2,0,0,1,209.05,46.79Z"/><path class="cls-1" d="M220.31,48.55a3.78,3.78,0,0,0-1.78.41,3.47,3.47,0,0,0-1.09.89l.16-1h-2.79l-1.6,13.07H216l.7-5.5a3.33,3.33,0,0,0,1.12,1,4,4,0,0,0,1.88.36,3.86,3.86,0,0,0,2.92-1.16,5.46,5.46,0,0,0,1.45-3.87,4.63,4.63,0,0,0-1.14-3.23A3.64,3.64,0,0,0,220.31,48.55Zm.11,6.22a2.25,2.25,0,0,1-1.54.59,1.9,1.9,0,0,1-2-2,2.34,2.34,0,0,1,.7-1.74,2.2,2.2,0,0,1,1.62-.66,1.9,1.9,0,0,1,2,2A2.73,2.73,0,0,1,220.42,54.77Z"/><polygon class="cls-1" points="225.46 57.71 228.24 57.71 229.31 49.08 226.52 49.08 225.46 57.71"/><path class="cls-1" d="M228.28,44.3h0a1.61,1.61,0,0,0-1.59,1.63h0a1.63,1.63,0,0,0,3.25,0A1.63,1.63,0,0,0,228.28,44.3Z"/><path class="cls-1" d="M237.1,48.85a3.23,3.23,0,0,0-1.7.37,4,4,0,0,0-1.06.81l.13-1h-2.78l-1.07,8.63h2.79l.5-4.26a3.3,3.3,0,0,1,.68-1.82,1.7,1.7,0,0,1,1.26-.46,1.42,1.42,0,0,1,1,.37,1.48,1.48,0,0,1,.35,1,11,11,0,0,1-.12,1.4l-.46,3.73h2.79l.52-4.43a13,13,0,0,0,.13-1.65,2.73,2.73,0,0,0-.73-2.05A3.09,3.09,0,0,0,237.1,48.85Z"/><path class="cls-1" d="M248.08,48.85a3.26,3.26,0,0,0-1.71.37,4.15,4.15,0,0,0-1.06.81l.13-1h-2.78l-1.07,8.63h2.79l.5-4.26a3.3,3.3,0,0,1,.68-1.82,1.7,1.7,0,0,1,1.26-.46,1.42,1.42,0,0,1,1,.37,1.48,1.48,0,0,1,.35,1,9.43,9.43,0,0,1-.11,1.4l-.47,3.73h2.79l.52-4.43a13,13,0,0,0,.14-1.65,2.75,2.75,0,0,0-.74-2.05A3.08,3.08,0,0,0,248.08,48.85Z"/><polygon class="cls-1" points="257.37 53.56 255.45 48.84 252.28 48.84 255.62 56.37 252.06 61.91 255.2 61.91 263.54 48.84 260.27 48.84 257.37 53.56"/><path class="cls-1" d="M266.09,48.82a1.83,1.83,0,1,0,1.83,1.82A1.82,1.82,0,0,0,266.09,48.82Zm0,3.5a1.68,1.68,0,1,1,1.68-1.68A1.68,1.68,0,0,1,266.09,52.32Z"/><path class="cls-1" d="M266.64,50.24a.51.51,0,0,0-.22-.42.73.73,0,0,0-.46-.11h-.33v1.75H266v-.67l.46.67h.4l-.53-.73A.5.5,0,0,0,266.64,50.24Zm-.64.24h0V50H266c.21,0,.31.08.31.23S266.12,50.48,266,50.48Z"/><path class="cls-1" d="M20.61,46.1a4.12,4.12,0,0,0-2.79-1.2,2.6,2.6,0,0,0-1.57.43,1.55,1.55,0,0,0-.57,1.19,1.34,1.34,0,0,0,.57,1.12,6.81,6.81,0,0,0,1.62.87l1,.45A5.78,5.78,0,0,1,21,50.55a3.82,3.82,0,0,1,.85,2.59,6.1,6.1,0,0,1-1.67,4.26A6.41,6.41,0,0,1,15.46,59a6.43,6.43,0,0,1-3.31-.74A9,9,0,0,1,9.93,56.5l2.14-2.74a5.81,5.81,0,0,0,1.39,1.32,3.74,3.74,0,0,0,1.95.55,3.44,3.44,0,0,0,1.84-.52,1.92,1.92,0,0,0,.69-1.55,1.54,1.54,0,0,0-.47-1.14,3.9,3.9,0,0,0-1.32-.75l-1-.39a7.44,7.44,0,0,1-2.34-1.47A3.87,3.87,0,0,1,11.75,47a5.16,5.16,0,0,1,1.49-3.75,6.13,6.13,0,0,1,4.48-1.57,7.33,7.33,0,0,1,4.8,1.64Z"/><path class="cls-1" d="M27.5,53.79A3,3,0,0,0,28,55.46a2,2,0,0,0,1.72.77,2.48,2.48,0,0,0,1.41-.33,2.43,2.43,0,0,0,.78-1l3.6.3a6.69,6.69,0,0,1-2,2.76,6.22,6.22,0,0,1-3.81,1,5.75,5.75,0,0,1-4.33-1.49,5.14,5.14,0,0,1-1.39-3.88,6.65,6.65,0,0,1,1.91-4.93,6.19,6.19,0,0,1,4.41-1.54,5.87,5.87,0,0,1,4.15,1.42c1.5,1.47,1.55,3.88,1.4,5.2Zm4.85-2.19a2.22,2.22,0,0,0-.72-1.44,2.45,2.45,0,0,0-1.47-.45,2.28,2.28,0,0,0-1.69.67,2.62,2.62,0,0,0-.62,1.22Z"/><path class="cls-1" d="M43.23,40.5,41,58.64H37.4L39.64,40.5Z"/><path class="cls-1" d="M49.8,40.5,47.56,58.64H44L46.21,40.5Z"/><path class="cls-2" d="M58.44,40.59c1.74,0,3.46.17,4.82,1.64a5.17,5.17,0,0,1,1.31,3.71,5.51,5.51,0,0,1-1.5,4,5.88,5.88,0,0,1-2.89,1.47l4.69,7.39H60l-4.39-7.17-.87,7.17H50.5l2.24-18.19ZM55.9,48.85h1a4.07,4.07,0,0,0,2.45-.65,2.51,2.51,0,0,0,.93-2.13,2,2,0,0,0-.87-1.77,4.36,4.36,0,0,0-2.29-.43h-.63Z"/><path class="cls-2" d="M72.34,46.62l-1.5,12.16H66.92l1.5-12.16ZM70.9,39.15a2.29,2.29,0,1,1-2.29,2.29A2.27,2.27,0,0,1,70.9,39.15Z"/><path class="cls-2" d="M84.81,46.62h3.92L87.2,58.83a7.36,7.36,0,0,1-1.82,4.42A7.36,7.36,0,0,1,80.06,65a6.65,6.65,0,0,1-4.72-1.52,6,6,0,0,1-1.69-3.33h4.2a2.37,2.37,0,0,0,.74,1.2,2.75,2.75,0,0,0,1.72.49,2.67,2.67,0,0,0,2.15-.9,4.46,4.46,0,0,0,.82-2.26l.16-1.31a4.21,4.21,0,0,1-3.73,1.72,4.68,4.68,0,0,1-3.77-1.45,6.11,6.11,0,0,1-1.63-4.42,7.41,7.41,0,0,1,2-5.26,5.77,5.77,0,0,1,4.36-1.77,4.89,4.89,0,0,1,4,1.88Zm-5.57,3.79a3.71,3.71,0,0,0-.9,2.45,2.68,2.68,0,0,0,2.78,2.87,3.19,3.19,0,0,0,2.16-.79,4,4,0,0,0,1-2.6,2.9,2.9,0,0,0-.79-2,2.82,2.82,0,0,0-2.1-.73A3,3,0,0,0,79.24,50.41Z"/><path class="cls-2" d="M96.91,38.9,95.77,48a5.71,5.71,0,0,1,1.5-1.15,4.77,4.77,0,0,1,2.48-.52,4.25,4.25,0,0,1,3.08,1,3.89,3.89,0,0,1,1,2.89,18,18,0,0,1-.2,2.32l-.73,6.24H99l.66-5.26a14.78,14.78,0,0,0,.16-2,2.09,2.09,0,0,0-.49-1.47A2,2,0,0,0,98,49.56a2.38,2.38,0,0,0-1.83.66,4.45,4.45,0,0,0-1,2.56l-.71,6H90.53L93,38.9Z"/><path class="cls-2" d="M111.17,49.78l-1.11,9h-3.93l1.12-9h-1.42l.38-3.16h1.42l.49-3.93h3.93l-.49,3.93H114l-.39,3.16Z"/><path class="cls-2" d="M155.41,42.6a1.66,1.66,0,0,0-2.36-.06L142.41,52.63l-5.08-5.21a1.67,1.67,0,0,0-2.39,2.33l6.22,6.39a1.69,1.69,0,0,0,1.2.5,1.67,1.67,0,0,0,1.15-.46L155.35,45A1.67,1.67,0,0,0,155.41,42.6Z"/><path class="cls-3" d="M169.75,36a28.33,28.33,0,0,0-3.09-4.56M145.14,77.35a28,28,0,0,0,23.64-13m-50.2-6.13a28.07,28.07,0,0,0,5.57,9.66m21-46.49a27.93,27.93,0,0,0-20.93,9.42"/><circle class="cls-2" cx="165" cy="29.79" r="0.26"/><circle class="cls-2" cx="125.77" cy="69.62" r="0.26"/><path class="cls-3" d="M111,38.86a35.51,35.51,0,0,1,68.21,1.43"/><path class="cls-3" d="M178.4,61.31a35.51,35.51,0,0,1-66.84.2"/></svg>